<svg aria-hidden="true" style="position: absolute; width: 0; height: 0; overflow: hidden;" version="1.1" xmlns="http://www.w3.org/2000/svg" xmlns:xlink="http://www.w3.org/1999/xlink">
<defs>
<symbol id="menu" viewBox="0 0 32 32">
<path d="M1.531 4.056c-0.563 0.138-1.081 0.563-1.344 1.1-0.212 0.431-0.219 1.237-0.013 1.656 0.212 0.444 0.469 0.706 0.9 0.944l0.394 0.213h29.063l0.319-0.169c0.475-0.25 0.669-0.438 0.906-0.875 0.194-0.362 0.212-0.438 0.212-0.925s-0.019-0.563-0.212-0.925c-0.231-0.431-0.494-0.681-0.944-0.9l-0.281-0.144-14.406-0.013c-7.925 0-14.488 0.013-14.594 0.037z"></path>
<path d="M1.531 14.056c-0.563 0.137-1.081 0.563-1.344 1.1-0.212 0.431-0.219 1.238-0.013 1.656 0.212 0.444 0.469 0.706 0.9 0.944l0.394 0.212h29.063l0.319-0.169c0.475-0.25 0.669-0.438 0.906-0.875 0.194-0.363 0.212-0.438 0.212-0.925s-0.019-0.563-0.212-0.925c-0.231-0.431-0.494-0.681-0.944-0.9l-0.281-0.144-14.406-0.012c-7.925 0-14.488 0.012-14.594 0.037z"></path>
<path d="M1.531 24.056c-0.563 0.137-1.081 0.563-1.344 1.1-0.212 0.431-0.219 1.238-0.013 1.656 0.212 0.444 0.469 0.706 0.9 0.944l0.394 0.212h29.063l0.319-0.169c0.475-0.25 0.669-0.438 0.906-0.875 0.194-0.363 0.212-0.438 0.212-0.925s-0.019-0.563-0.212-0.925c-0.231-0.431-0.494-0.681-0.944-0.9l-0.281-0.144-14.406-0.012c-7.925 0-14.488 0.012-14.594 0.038z"></path>
</symbol>
<symbol id="close" viewBox="0 0 32 32">
<path d="M1.694 0.069c-0.65 0.125-1.212 0.569-1.494 1.169-0.138 0.294-0.169 0.444-0.169 0.856 0 0.969-0.425 0.487 6.719 7.625l6.313 6.313-6.369 6.375c-5.169 5.181-6.388 6.431-6.506 6.688-0.212 0.444-0.219 1.244-0.013 1.688 0.181 0.394 0.581 0.806 0.981 1.019 0.45 0.231 1.169 0.262 1.688 0.075 0.362-0.137 0.587-0.35 6.769-6.525l6.387-6.381 6.363 6.35c5.106 5.1 6.419 6.381 6.669 6.5 0.262 0.125 0.406 0.15 0.906 0.15 0.519 0 0.631-0.025 0.906-0.169 0.387-0.2 0.806-0.644 0.988-1.038 0.2-0.425 0.187-1.231-0.019-1.669-0.119-0.256-1.337-1.506-6.506-6.688l-6.369-6.375 6.313-6.313c7.144-7.138 6.719-6.656 6.719-7.625 0-0.406-0.031-0.563-0.163-0.844-0.506-1.075-1.775-1.512-2.837-0.988-0.163 0.081-2.444 2.313-6.606 6.475l-6.363 6.356-6.356-6.356c-4.169-4.162-6.45-6.394-6.612-6.475-0.212-0.106-0.906-0.281-1.025-0.256-0.019 0.006-0.163 0.031-0.313 0.063z"></path>
</symbol>
<symbol id="arrow" viewBox="0 0 32 32">
<path d="M8.75 0.138c-0.275 0.106-0.481 0.275-1.069 0.856-0.9 0.894-1.019 1.106-1.025 1.788 0 0.362 0.031 0.569 0.119 0.75 0.081 0.169 2.081 2.219 6.219 6.363l6.1 6.106-6.106 6.113c-4.75 4.75-6.138 6.169-6.231 6.387-0.088 0.188-0.131 0.419-0.131 0.688 0 0.644 0.181 0.956 1.050 1.819 0.613 0.606 0.794 0.744 1.094 0.856 0.456 0.175 0.819 0.175 1.275 0.006 0.35-0.125 0.675-0.444 7.688-7.456 8.106-8.1 7.644-7.587 7.644-8.413s0.462-0.313-7.644-8.412c-7.019-7.019-7.338-7.331-7.688-7.456-0.45-0.163-0.85-0.163-1.294 0.006z"></path>
</symbol>
<symbol id="facebook" viewBox="0 0 32 32">
<path d="M29 0h-26c-1.65 0-3 1.35-3 3v26c0 1.65 1.35 3 3 3h13v-14h-4v-4h4v-2c0-3.306 2.694-6 6-6h4v4h-4c-1.1 0-2 0.9-2 2v2h6l-1 4h-5v14h9c1.65 0 3-1.35 3-3v-26c0-1.65-1.35-3-3-3z"></path>
</symbol>
<symbol id="instagram" viewBox="0 0 32 32">
<path d="M16 2.881c4.275 0 4.781 0.019 6.462 0.094 1.563 0.069 2.406 0.331 2.969 0.55 0.744 0.288 1.281 0.638 1.837 1.194 0.563 0.563 0.906 1.094 1.2 1.838 0.219 0.563 0.481 1.412 0.55 2.969 0.075 1.688 0.094 2.194 0.094 6.463s-0.019 4.781-0.094 6.463c-0.069 1.563-0.331 2.406-0.55 2.969-0.288 0.744-0.637 1.281-1.194 1.837-0.563 0.563-1.094 0.906-1.837 1.2-0.563 0.219-1.413 0.481-2.969 0.55-1.688 0.075-2.194 0.094-6.463 0.094s-4.781-0.019-6.463-0.094c-1.563-0.069-2.406-0.331-2.969-0.55-0.744-0.288-1.281-0.637-1.838-1.194-0.563-0.563-0.906-1.094-1.2-1.837-0.219-0.563-0.481-1.413-0.55-2.969-0.075-1.688-0.094-2.194-0.094-6.463s0.019-4.781 0.094-6.463c0.069-1.563 0.331-2.406 0.55-2.969 0.288-0.744 0.638-1.281 1.194-1.838 0.563-0.563 1.094-0.906 1.838-1.2 0.563-0.219 1.412-0.481 2.969-0.55 1.681-0.075 2.188-0.094 6.463-0.094zM16 0c-4.344 0-4.887 0.019-6.594 0.094-1.7 0.075-2.869 0.35-3.881 0.744-1.056 0.412-1.95 0.956-2.837 1.85-0.894 0.888-1.438 1.781-1.85 2.831-0.394 1.019-0.669 2.181-0.744 3.881-0.075 1.713-0.094 2.256-0.094 6.6s0.019 4.887 0.094 6.594c0.075 1.7 0.35 2.869 0.744 3.881 0.413 1.056 0.956 1.95 1.85 2.837 0.887 0.887 1.781 1.438 2.831 1.844 1.019 0.394 2.181 0.669 3.881 0.744 1.706 0.075 2.25 0.094 6.594 0.094s4.888-0.019 6.594-0.094c1.7-0.075 2.869-0.35 3.881-0.744 1.050-0.406 1.944-0.956 2.831-1.844s1.438-1.781 1.844-2.831c0.394-1.019 0.669-2.181 0.744-3.881 0.075-1.706 0.094-2.25 0.094-6.594s-0.019-4.887-0.094-6.594c-0.075-1.7-0.35-2.869-0.744-3.881-0.394-1.063-0.938-1.956-1.831-2.844-0.887-0.887-1.781-1.438-2.831-1.844-1.019-0.394-2.181-0.669-3.881-0.744-1.712-0.081-2.256-0.1-6.6-0.1v0z"></path>
<path d="M16 7.781c-4.537 0-8.219 3.681-8.219 8.219s3.681 8.219 8.219 8.219 8.219-3.681 8.219-8.219c0-4.537-3.681-8.219-8.219-8.219zM16 21.331c-2.944 0-5.331-2.387-5.331-5.331s2.387-5.331 5.331-5.331c2.944 0 5.331 2.387 5.331 5.331s-2.387 5.331-5.331 5.331z"></path>
<path d="M26.462 7.456c0 1.060-0.859 1.919-1.919 1.919s-1.919-0.859-1.919-1.919c0-1.060 0.859-1.919 1.919-1.919s1.919 0.859 1.919 1.919z"></path>
</symbol>
   <symbol id="checkmark" viewBox="0 0 32 32">
<path d="M27 4l-15 15-7-7-5 5 12 12 20-20z"></path>
</symbol>  
</defs>
</svg>
